<svg id="Layer_1" data-name="Layer 1" xmlns="http://www.w3.org/2000/svg" viewBox="0 0 512 512"><defs><style>.cls-1{fill:#141f38;}</style></defs><title>user-outline</title><path class="cls-1" d="M320,310.18V277.27A128,128,0,0,0,384,166.4V128a128,128,0,0,0-256,0v38.4a128,128,0,0,0,64,110.87v32.91A172.84,172.84,0,0,0,51.2,480a32,32,0,0,0,32,32H428.8a32,32,0,0,0,32-32A172.84,172.84,0,0,0,320,310.18ZM153.6,166.4V128a102.4,102.4,0,1,1,204.8,0v38.4a102.4,102.4,0,1,1-204.8,0ZM256,294.4a127.94,127.94,0,0,0,38.4-5.86v29.77l-38.4,23-38.4-23V288.54A127.94,127.94,0,0,0,256,294.4Zm172.8,192H83.2a6.41,6.41,0,0,1-6.4-6.4c0-71.72,51.56-131.61,119.56-144.58L256,371.2l59.64-35.78c68,13,119.56,72.86,119.56,144.58A6.41,6.41,0,0,1,428.8,486.4Z"/></svg>